<?xml version="1.0" encoding="UTF-8" standalone="no"?>
<!DOCTYPE svg PUBLIC "-//W3C//DTD SVG 1.1//EN" "http://www.w3.org/Graphics/SVG/1.1/DTD/svg11.dtd">
<svg width="100%" height="100%" viewBox="0 0 456 456" version="1.1" xmlns="http://www.w3.org/2000/svg" xmlns:xlink="http://www.w3.org/1999/xlink" xml:space="preserve" xmlns:serif="http://www.serif.com/" style="fill-rule:evenodd;clip-rule:evenodd;stroke-linejoin:round;stroke-miterlimit:2;">
    <g transform="matrix(9.84316,0,0,9.84316,41.4514,270.333)">
        <g>
            <path d="M3.814,-8.566C4.92,-8.566 5.727,-8.329 6.234,-7.854C6.742,-7.38 6.996,-6.727 6.996,-5.895C6.996,-5.52 6.939,-5.161 6.826,-4.819C6.713,-4.478 6.528,-4.174 6.272,-3.908C6.017,-3.643 5.676,-3.433 5.25,-3.278C4.824,-3.124 4.299,-3.047 3.674,-3.047L2.895,-3.047L2.895,0L1.078,0L1.078,-8.566L3.814,-8.566ZM3.721,-7.078L2.895,-7.078L2.895,-4.535L3.492,-4.535C3.832,-4.535 4.127,-4.58 4.377,-4.67C4.627,-4.76 4.82,-4.9 4.957,-5.092C5.094,-5.283 5.162,-5.529 5.162,-5.83C5.162,-6.252 5.045,-6.565 4.811,-6.771C4.576,-6.976 4.213,-7.078 3.721,-7.078Z" style="fill:white;fill-rule:nonzero;"/>
            <path d="M13.547,0L8.613,0L8.613,-8.566L13.547,-8.566L13.547,-7.078L10.43,-7.078L10.43,-5.197L13.33,-5.197L13.33,-3.709L10.43,-3.709L10.43,-1.5L13.547,-1.5L13.547,0Z" style="fill:white;fill-rule:nonzero;"/>
            <path d="M20.578,0L19.957,-2.039L16.834,-2.039L16.213,0L14.256,0L17.279,-8.602L19.5,-8.602L22.535,0L20.578,0ZM19.523,-3.563L18.902,-5.555C18.863,-5.688 18.812,-5.858 18.747,-6.067C18.683,-6.276 18.618,-6.489 18.554,-6.706C18.489,-6.923 18.438,-7.111 18.398,-7.271C18.359,-7.111 18.306,-6.913 18.237,-6.677C18.169,-6.44 18.104,-6.217 18.041,-6.006C17.979,-5.795 17.934,-5.645 17.906,-5.555L17.291,-3.563L19.523,-3.563Z" style="fill:white;fill-rule:nonzero;"/>
            <path d="M26.109,-8.566C26.887,-8.566 27.528,-8.473 28.034,-8.285C28.54,-8.098 28.916,-7.814 29.162,-7.436C29.408,-7.057 29.531,-6.578 29.531,-6C29.531,-5.609 29.457,-5.268 29.309,-4.975C29.16,-4.682 28.965,-4.434 28.723,-4.23C28.48,-4.027 28.219,-3.861 27.938,-3.732L30.457,0L28.441,0L26.396,-3.287L25.43,-3.287L25.43,0L23.613,0L23.613,-8.566L26.109,-8.566ZM25.98,-7.078L25.43,-7.078L25.43,-4.764L26.016,-4.764C26.617,-4.764 27.048,-4.864 27.308,-5.065C27.567,-5.267 27.697,-5.563 27.697,-5.953C27.697,-6.359 27.558,-6.648 27.278,-6.82C26.999,-6.992 26.566,-7.078 25.98,-7.078Z" style="fill:white;fill-rule:nonzero;"/>
            <path d="M31.535,0L31.535,-8.566L33.352,-8.566L33.352,-1.5L36.826,-1.5L36.826,0L31.535,0Z" style="fill:white;fill-rule:nonzero;"/>
        </g>
    </g>
</svg>
